<?xml version="1.0" encoding="utf-8"?>
<!-- Generator: Adobe Illustrator 24.0.1, SVG Export Plug-In . SVG Version: 6.00 Build 0)  -->
<svg version="1.1" id="图层_1" xmlns="http://www.w3.org/2000/svg" xmlns:xlink="http://www.w3.org/1999/xlink" x="0px" y="0px"
	 viewBox="0 0 448 512" style="enable-background:new 0 0 448 512;" xml:space="preserve">
<style type="text/css">
	.st0{fill:#FFFFFF;}
	.st1{fill-rule:evenodd;clip-rule:evenodd;fill:#FFFFFF;}
</style>
<path class="st0" d="M-551.9,48.2c-63.6,0-114.9,51.3-114.9,114.9S-615.5,278-551.9,278S-437,226.7-437,163.1
	S-488.3,48.2-551.9,48.2z M-551.9,237.8c-41.1,0-74.7-33.5-74.7-74.7s33.5-74.7,74.7-74.7c41.2,0,74.7,33.5,74.7,74.7
	S-510.8,237.8-551.9,237.8L-551.9,237.8z M-405.5,43.5c0,14.9-12,26.8-26.8,26.8c-14.9,0-26.8-12-26.8-26.8s12-26.8,26.8-26.8
	S-405.5,28.7-405.5,43.5z M-329.4,70.7c-1.7-35.9-9.9-67.7-36.2-93.9c-26.2-26.2-58-34.4-93.9-36.2c-37-2.1-147.9-2.1-184.9,0
	c-35.8,1.7-67.6,9.9-93.9,36.1s-34.4,58-36.2,93.9c-2.1,37-2.1,147.9,0,184.9c1.7,35.9,9.9,67.7,36.2,93.9s58,34.4,93.9,36.2
	c37,2.1,147.9,2.1,184.9,0c35.9-1.7,67.7-9.9,93.9-36.2c26.2-26.2,34.4-58,36.2-93.9C-327.3,218.5-327.3,107.7-329.4,70.7
	L-329.4,70.7z M-377.2,295.2c-7.8,19.6-22.9,34.7-42.6,42.6c-29.5,11.7-99.5,9-132.1,9s-102.7,2.6-132.1-9
	c-19.6-7.8-34.7-22.9-42.6-42.6c-11.7-29.5-9-99.5-9-132.1s-2.6-102.7,9-132.1c7.8-19.6,22.9-34.7,42.6-42.6
	c29.5-11.7,99.5-9,132.1-9s102.7-2.6,132.1,9c19.6,7.8,34.7,22.9,42.6,42.6c11.7,29.5,9,99.5,9,132.1S-365.5,265.8-377.2,295.2z"/>
<g>
	<defs>
		<rect id="SVGID_1_" x="-400.5" y="145.4" width="241.1" height="277.6"/>
	</defs>
	<clipPath id="SVGID_2_">
		<use xlink:href="#SVGID_1_"  style="overflow:visible;"/>
	</clipPath>
</g>
<g>
	<path class="st1" d="M164.9,46.5c-28.8,15-52.4,27.7-52.4,28.3c0,1.3,69.1,36.4,71.6,36.3c1.1,0,9.2-3.8,18-8.3l16-8.2l17.4,9
		l17.4,9l28.5-12.8c43-19.4,47.5-21.5,46.8-22.2c-0.9-0.9-16.4-9.2-58.2-31.3c-20.2-10.7-39.9-21.1-43.6-23.2
		c-3.8-2.1-7.4-3.8-8-3.8C217.8,19.2,193.7,31.5,164.9,46.5z M38.6,112l-30,15.5v68.1c0,37.4,0.4,68.1,0.9,68.1
		c0.5,0,15.2-6.4,32.8-14.2l31.9-14.2v-71.7l15.6,8.5c12,6.5,24,13.1,36.1,19.6l20.5,11.1l9.1-4.1c5.7-2.6,11.4-5.2,17.1-7.8
		c4.4-2.1,15.2-6.9,24-10.8c8.8-3.9,16.9-7.8,18.1-8.7c1.5-1.2-17.2-11.5-69.2-38.3c-39.2-20.2-72.5-36.6-74-36.5
		C69.9,96.4,55.1,103.5,38.6,112z M333.7,116.4c-20.4,9.2-37.1,17.2-37.2,17.6s11.1,7.1,24.7,14.7c13.6,7.6,24.8,14.3,24.8,14.8
		c0,0.5-12.1,6.3-26.8,13c-14.7,6.6-52,23.5-82.7,37.4l-103.1,46.7c-25.9,11.7-49.3,22.3-52,23.5c-53,24-67.6,30.7-69.6,31.8
		c-2,1.2-2.5,7.8-2.8,41.4l-0.4,40.1l26.8,13.7l26.8,13.7L99.4,408c20.4-9.2,37.2-17.3,37.2-17.9c0-0.6-3.8-3.1-8.4-5.5
		c-4.6-2.4-14.1-7.8-21.2-11.9c-7-4.1-14-7.9-15.6-8.4c-1.5-0.5-2.8-1.4-2.8-2c0-0.6,16.4-8.4,36.4-17.3
		c38.8-17.4,68.5-30.8,132.3-59.6c28.5-12.9,57-25.8,85.5-38.7c25.1-11.3,54.2-24.6,64.8-29.4l19.2-8.8l0.4-40.5l0.4-40.5l-27.2-14
		c-15-7.7-27.7-14-28.4-13.9C371.3,99.6,354.1,107.1,333.7,116.4z M419.5,262.5c-4,2-11.9,5.6-17.6,8.2c-5.7,2.5-16.4,7.4-23.9,10.8
		l-13.6,6.2l-0.3,35.6c-0.2,19.6-0.9,35.5-1.6,35.4c-1.6-0.2-27.1-13.3-52.7-27.1c-18.5-9.9-19.6-10.3-24-8.2
		c-2.5,1.2-17.5,8-33.3,15c-15.8,7-29.3,13.2-29.9,13.7c-0.6,0.6,31.2,17.8,70.8,38.4l71.9,37.4L396,412
		c16.9-8.8,31.3-16.7,31.9-17.7c1.5-2.3,1.4-135.6-0.1-135.5C427.2,258.9,423.5,260.6,419.5,262.5z M249.3,419.1
		c-5.3,2.3-10.7,4.6-16,6.9c-16.1,7-12.9,7.2-32.1-2.3c-12.7-6.4-18.2-8.3-20.6-7.4c-1.8,0.7-17.2,7.7-34.2,15.4
		c-17,7.8-31.6,14.1-32.3,14.1c-7.1,0,4.7,7.1,50.6,30.3l53.8,27.2L241,492c12.4-6.2,37.5-18.5,55.8-27.4
		c18.2-8.9,32.9-16.4,32.6-16.7c-0.3-0.3-15.6-8.1-33.9-17.5l-33.4-16.9L249.3,419.1z"/>
</g>
</svg>
